<?xml version="1.0" encoding="utf-8"?>
<!-- Generator: Adobe Illustrator 26.0.3, SVG Export Plug-In . SVG Version: 6.00 Build 0)  -->
<svg version="1.1" id="Layer_1" xmlns="http://www.w3.org/2000/svg" xmlns:xlink="http://www.w3.org/1999/xlink" x="0px" y="0px"
	 viewBox="0 0 120 120" style="enable-background:new 0 0 120 120;" xml:space="preserve">
<style type="text/css">
	.st0{fill-rule:evenodd;clip-rule:evenodd;}
</style>
<path class="st0" d="M21.8,96c-2.7,0-5-2.2-5-5c0-2.7,2.2-5,5-5h76.4c2.7,0,5,2.2,5,5c0,2.7-2.2,5-5,5H21.8L21.8,96z M21.8,64.6
	c-2.7,0-5-2.2-5-5c0-2.7,2.2-5,5-5h76.4c2.7,0,5,2.2,5,5c0,2.7-2.2,5-5,5H21.8L21.8,64.6z M21.8,33.9c-2.7,0-5-2.2-5-5
	c0-2.7,2.2-5,5-5h76.4c2.7,0,5,2.2,5,5c0,2.7-2.2,5-5,5H21.8z"/>
</svg>
