<?xml version="1.0" encoding="utf-8"?>
<!-- Generator: Adobe Illustrator 26.0.3, SVG Export Plug-In . SVG Version: 6.00 Build 0)  -->
<svg version="1.1" id="Layer_1" xmlns:xodm="http://www.corel.com/coreldraw/odm/2003"
	 xmlns="http://www.w3.org/2000/svg" xmlns:xlink="http://www.w3.org/1999/xlink" x="0px" y="0px" viewBox="0 0 7.3 6.8"
	 style="enable-background:new 0 0 7.3 6.8;" xml:space="preserve">
<style type="text/css">
	.st0{fill:#FFFFFF;}
</style>
<g id="Layer_x0020_1">
	<path class="st0" d="M1.5,3.9c-0.3,0-0.5-0.2-0.5-0.5s0.2-0.5,0.5-0.5h4.4c0.3,0,0.5,0.2,0.5,0.5S6.1,3.9,5.8,3.9
		C5.8,3.9,1.5,3.9,1.5,3.9z M0.5,1C0.2,1,0,0.8,0,0.5S0.2,0,0.5,0h6.3c0.3,0,0.5,0.2,0.5,0.5S7.2,1,6.9,1C6.9,1,0.5,1,0.5,1z
		 M0.5,6.9C0.2,6.9,0,6.7,0,6.4c0-0.3,0.2-0.5,0.5-0.5h6.3c0.3,0,0.5,0.2,0.5,0.5c0,0.3-0.2,0.5-0.5,0.5C6.9,6.9,0.5,6.9,0.5,6.9z"
		/>
</g>
</svg>
