<?xml version="1.0" encoding="utf-8"?>
<!-- Generator: Adobe Illustrator 26.0.3, SVG Export Plug-In . SVG Version: 6.00 Build 0)  -->
<svg version="1.1" id="Layer_1" xmlns:xodm="http://www.corel.com/coreldraw/odm/2003"
	 xmlns="http://www.w3.org/2000/svg" xmlns:xlink="http://www.w3.org/1999/xlink" x="0px" y="0px" viewBox="0 0 5.3 6.7"
	 style="enable-background:new 0 0 5.3 6.7;" xml:space="preserve">
<style type="text/css">
	.st0{fill:#FFFFFF;}
</style>
<g id="Layer_x0020_1">
	<path class="st0" d="M3.5,3.1c0.2-0.2,0.5-0.2,0.6,0s0.2,0.5,0,0.6L2.9,4.9C2.7,5,2.4,5,2.3,4.9L1.1,3.7c-0.2-0.2-0.2-0.5,0-0.6
		s0.5-0.2,0.6,0l0.5,0.5v-3C2.1,0.2,2.3,0,2.6,0S3,0.2,3,0.5v3C3,3.5,3.5,3.1,3.5,3.1z M0.5,6.7C0.2,6.7,0,6.6,0,6.3
		s0.2-0.5,0.5-0.5h4.4c0.3,0,0.5,0.2,0.5,0.5S5.2,6.7,4.9,6.7H0.5z"/>
</g>
</svg>
