<?xml version="1.0" encoding="utf-8"?>
<!-- Generator: Adobe Illustrator 26.0.3, SVG Export Plug-In . SVG Version: 6.00 Build 0)  -->
<svg version="1.1" id="Layer_1" xmlns="http://www.w3.org/2000/svg" xmlns:xlink="http://www.w3.org/1999/xlink" x="0px" y="0px"
	 viewBox="0 0 120 120" style="enable-background:new 0 0 120 120;" xml:space="preserve" width="240" height="240">
<path fill="#fff" class="st0" d="M69.5,57c2-2,5.2-2,7.2,0c2,2,2,5.2,0,7.2L63.6,77.4c-2,2-5.2,2-7.2,0L43.2,64.3c-2-2-2-5.2,0-7.2
	c2-2,5.2-2,7.2,0l4.4,4.4V29.1c0-2.8,2.3-5.1,5.1-5.1c2.8,0,5.1,2.3,5.1,5.1v32.3L69.5,57L69.5,57z M36.7,96c-2.8,0-5.1-2.3-5.1-5.1
	s2.3-5.1,5.1-5.1h46.5c2.8,0,5.1,2.3,5.1,5.1S86.1,96,83.3,96H36.7z"/>
</svg>
