<?xml version="1.0" encoding="utf-8"?>
<!-- Generator: Adobe Illustrator 26.0.3, SVG Export Plug-In . SVG Version: 6.00 Build 0)  -->
<svg version="1.1" id="Layer_1" xmlns:xodm="http://www.corel.com/coreldraw/odm/2003"
	 xmlns="http://www.w3.org/2000/svg" xmlns:xlink="http://www.w3.org/1999/xlink" x="0px" y="0px" viewBox="0 0 6.2 6.2"
	 style="enable-background:new 0 0 6.2 6.2;" xml:space="preserve">
<style type="text/css">
	.st0{fill:#FFFFFF;}
</style>
<g id="Layer_x0020_1">
	<path class="st0" d="M0.7,0.7C1.2,0.2,1.8,0,2.6,0c0.6,0,1.3,0.2,1.8,0.7s0.7,1.1,0.7,1.8C5.1,3,5,3.5,4.6,4l1.5,1.5
		c0.2,0.2,0.2,0.5,0,0.7c-0.2,0.2-0.5,0.2-0.7,0L3.9,4.7C3.4,5,2.9,5.2,2.4,5.2C1.8,5.2,1.1,5,0.6,4.5s-0.7-1.1-0.7-1.8
		c0-0.6,0.2-1.3,0.7-1.8L0.7,0.7z M1.5,1.5C1.1,1.8,1,2.2,1,2.6c0,0.4,0.1,0.9,0.5,1.1C1.8,4,2.2,4.1,2.6,4.1c0.4,0,0.9-0.1,1.1-0.5
		C4,3.3,4.1,2.9,4.1,2.6S4,1.7,3.7,1.5C3.3,1.1,2.9,1,2.6,1S1.7,1.1,1.5,1.5z"/>
</g>
</svg>
